<?xml version="1.0" encoding="utf-8" ?>
<svg xmlns="http://www.w3.org/2000/svg" xmlns:xlink="http://www.w3.org/1999/xlink" width="1024" height="1024">
	<path d="M262.963 341.684C264.465 341.696 265.891 341.882 267.371 342.124C306.421 348.525 318.338 417.845 329.662 448.519C333.196 458.091 337.585 467.428 343.616 475.695C352.962 488.505 365.937 499.086 381.981 501.49C392.867 503.121 404.139 499.944 413.267 493.973C442.897 474.592 449.18 438.912 459.005 407.602C462.826 395.428 467.533 383.261 473.788 372.12C478.519 363.695 484.464 355.438 492.319 349.656C499.339 344.489 507.45 342.074 516.139 343.413C552.996 349.093 564.774 418.259 575.203 447.231C578.732 457.036 583.087 466.273 589.247 474.723C602.044 492.277 620.552 503.22 641.952 506.51C663.788 509.867 702.1 510.142 721.54 500.321C730.499 495.795 737.461 488.846 743.25 480.74C750.429 470.688 756.39 458.515 766.661 451.2C772.896 446.76 780.457 445.196 787.958 446.582C803.403 449.436 811.387 464.896 819.536 476.677C846.056 515.016 874.357 506.926 914.501 507.725C920.42 507.843 926.801 507.348 932.622 508.507C934.823 508.945 937.143 509.388 938.46 511.362C938.513 512.407 938.607 513.365 938.244 514.374C937.473 516.517 935.354 517.505 933.256 517.867C927.753 518.818 920.77 517.965 915.128 517.903C896.33 517.697 876.641 516.707 858.215 521.057C817.386 530.695 816.786 570.262 791.818 579.26C787.487 580.821 782.919 581.18 778.373 580.581C757.648 577.848 749.564 553.603 737.406 539.728C731.514 533.005 724.582 528.167 716.535 524.361C714.047 523.322 711.562 522.446 708.962 521.728C693.093 517.348 675.813 518.42 659.504 518.894C648.472 519.214 637.337 519.905 626.799 523.449C616.635 526.868 607.636 532.736 600.004 540.223C566.725 572.866 570.165 624.122 544.472 661.182C539.622 668.177 533.774 674.592 526.276 678.792C518.892 682.929 509.929 683.685 501.833 681.306C468.974 671.651 458.201 614.148 448.923 585.587C445.971 576.5 442.52 567.666 437.905 559.276C429.412 543.84 416.628 530.593 399.302 525.674C388.864 522.71 378.724 524.078 368.913 528.52C333.857 544.392 327.485 589.258 316.574 621.682C312.085 635.024 306.505 647.907 298.588 659.611C293.272 667.472 286.686 674.941 278.239 679.519C270.529 683.697 261.927 684.651 253.507 682.076C245.302 679.568 238.328 674.071 232.684 667.748C207.581 639.623 206.853 601.099 189.866 569.16C175.172 541.531 149.6 520.668 117.555 519.083C108.595 518.64 97.3217 520.739 88.7479 517.897C86.7719 517.242 85.6475 516.488 84.7492 514.568C84.6437 513.238 84.6461 512.274 85.5308 511.177C89.7557 505.94 116.333 508.365 123.919 507.366C137.759 505.542 151.932 499.44 162.959 490.936C195.202 466.068 200.297 426.867 213.943 391.302C218.068 380.553 222.995 369.858 230.165 360.77C238.79 349.835 249.074 343.277 262.963 341.684Z"/>
</svg>
